# xmcd
#
# Track frame offsets: 
#        150
#        25438
#        46888
#        69088
#        87763
#        105913
#        120688
#        136813
#        154513
#        170038
#        186163
#        198163
#        219463
#
# Disc length: 3186 seconds
#
# Revision: 5
# Processed by: cddbd v1.5.2PL0 Copyright (c) Steve Scherf et al.
# Submitted via: ExactAudioCopy v1.0b1
#
DISCID=a40c700d
DTITLE=Various Artist - Feel The Love Disc 2
DYEAR=1994
DGENRE=Pop
TTITLE0=Cheap Trick - The Flame
TTITLE1=Boston - More Than A Feeling
TTITLE2=Surface - Shower Me With Your Love
TTITLE3=Survivor - High On You
TTITLE4=Regina Belle - Make It Like It Was
TTITLE5=Firefall - Just Remember I Love You
TTITLE6=Debbie Gibson - Lost In Your Eyes
TTITLE7=April Wine - Just Between You And Me
TTITLE8=Peter Frampton - I'm In You
TTITLE9=Righteous Brothers - Unchained Melody [rerecording]
TTITLE10=England Dan And John Ford Coley - I'd Really Love To See You 
TTITLE10=Tonight
TTITLE11=Trey Lorenz - Someone To Hold
TTITLE12=Expose - Let Me Be The One
EXTD=
EXTT0=
EXTT1=
EXTT2=
EXTT3=
EXTT4=
EXTT5=
EXTT6=
EXTT7=
EXTT8=
EXTT9=
EXTT10=
EXTT11=
EXTT12=
PLAYORDER=
